<?xml version="1.0" encoding="UTF-8"?><!DOCTYPE svg PUBLIC "-//W3C//DTD SVG 1.1//EN" "http://www.w3.org/Graphics/SVG/1.1/DTD/svg11.dtd"><svg xmlns="http://www.w3.org/2000/svg"><symbol id="icon-chart" viewBox="0 0 452.113 452.113">
    <g>
        <path d="M182.834 187.006c0 22.148 15.605 40.71 36.395 45.297v51.912c-9.609-3.949-16.395-13.405-16.395-24.42 0-5.522-4.478-10-10-10s-10 4.478-10 10c0 22.147 15.605 40.709 36.395 45.296v11.529c0 5.522 4.478 10 10 10s10-4.478 10-10v-11.529c20.789-4.587 36.394-23.148 36.394-45.296s-15.605-40.71-36.394-45.297v-51.913c9.608 3.949 16.394 13.405 16.394 24.42 0 5.522 4.478 10 10 10s10-4.478 10-10c0-22.147-15.605-40.709-36.394-45.296V130.18c0-5.522-4.478-10-10-10s-10 4.478-10 10v11.529c-20.79 4.588-36.395 23.15-36.395 45.297zm20 0c0-11.016 6.786-20.471 16.395-24.42v48.842c-9.609-3.949-16.395-13.406-16.395-24.422zm52.788 72.789c0 11.016-6.785 20.471-16.394 24.42v-48.842c9.609 3.951 16.394 13.407 16.394 24.422z"/>
        <path d="M403.156 338.014l-66.033-38.124a15 15 0 0 0-18.953 3.304c-22.99 27.183-56.564 42.772-92.113 42.772-35.55 0-69.124-15.59-92.114-42.772a14.996 14.996 0 0 0-18.953-3.304l-66.032 38.124a15 15 0 0 0-4.547 21.927c20.596 27.759 47.686 50.771 78.342 66.55 31.699 16.315 67.421 24.939 103.305 24.939 35.883 0 71.605-8.624 103.305-24.939 30.655-15.778 57.745-38.791 78.341-66.55a14.998 14.998 0 0 0-4.548-21.927zm-87.524 61.803c-27.864 14.343-58.002 21.614-89.575 21.614-31.574 0-61.712-7.271-89.576-21.614-21.593-11.113-41.149-26.367-57.309-44.606l40.423-23.338c28.158 28.163 66.3 44.094 106.462 44.094 40.161 0 78.303-15.931 106.461-44.095l40.424 23.339c-16.161 18.239-35.717 33.493-57.31 44.606z"/>
        <path d="M112.57 266.248c-4.716-13.09-7.106-26.842-7.106-40.873 0-58.516 41.732-108.44 99.231-118.709a15.001 15.001 0 0 0 12.362-14.767V15.684a15 15 0 0 0-5.008-11.188 14.975 14.975 0 0 0-11.68-3.717C145.546 6.986 94.95 33.097 57.901 74.301 20.563 115.829 0 169.481 0 225.374c0 31.266 6.282 61.566 18.673 90.061a14.997 14.997 0 0 0 21.256 7.009l66.029-38.122a15 15 0 0 0 6.612-18.074zm-72.455 21.447C33.396 267.691 30 246.797 30 225.374c0-48.476 17.832-95.004 50.21-131.015 28.338-31.518 65.803-52.853 106.848-61.146v46.661c-65.367 17.398-111.594 76.695-111.594 145.5 0 13.25 1.712 26.309 5.099 38.969l-40.448 23.352z"/>
        <path d="M394.212 74.301C357.163 33.097 306.567 6.986 251.743.78a14.986 14.986 0 0 0-11.68 3.717 14.998 14.998 0 0 0-5.008 11.188V91.9a15.002 15.002 0 0 0 12.362 14.767c57.498 10.269 99.23 60.193 99.23 118.709 0 14.033-2.391 27.785-7.105 40.873a15 15 0 0 0 6.612 18.074l66.029 38.122a14.997 14.997 0 0 0 21.256-7.009c12.391-28.494 18.673-58.795 18.673-90.061.001-55.894-20.562-109.546-57.9-151.074zm17.786 213.394l-40.448-23.353c3.388-12.658 5.099-25.716 5.099-38.968 0-68.806-46.228-128.103-111.593-145.499V33.214c41.045 8.293 78.51 29.628 106.848 61.146 32.378 36.011 50.21 82.539 50.21 131.015-.001 21.422-3.397 42.316-10.116 62.32z"/>
    </g>
</symbol><symbol id="icon-facebook" viewBox="0 0 10 19">
    <title>
        facebook
    </title>
    <path d="M9.766.157v2.946H8.014c-.64 0-1.071.134-1.295.402-.223.268-.335.67-.335 1.205v2.11h3.27l-.435 3.303H6.384v8.471H2.97v-8.47H.123V6.82H2.97V4.387c0-1.384.387-2.457 1.161-3.22C4.904.404 5.934.023 7.222.023c1.093 0 1.941.045 2.544.134z" fill-rule="evenodd"/>
</symbol></svg>